# xmcd CD database file
#
# Track frame offsets:
#	150
#	17472
#	27255
#	40112
#	49747
#	58446
#	66561
#
# Disc length: 1007 seconds
#
# Revision: 0
# Processed by: cddbd v1.5.2PL0 Copyright (c) Steve Scherf et al.
# Submitted via: CDex 1.51
#
DISCID=5e03ed07
DTITLE=Bullfrog Brown - Mother River Delta
DYEAR=2008
DGENRE=Blues
TTITLE0=Nobody The Skull
TTITLE1=Special Rider
TTITLE2=30
TTITLE3=Nothing But Trouble
TTITLE4=The Wagon Swing
TTITLE5=Talkin' Drinkin' Man
TTITLE6=Rain
EXTD=YEAR: 2008
EXTT0=
EXTT1=
EXTT2=
EXTT3=
EXTT4=
EXTT5=
EXTT6=
PLAYORDER=
